<svg width="70" height="71" viewBox="0 0 70 71" fill="none" xmlns="http://www.w3.org/2000/svg">
<path d="M42.8925 15.3333C45.9041 15.9209 48.6719 17.3938 50.8416 19.5635C53.0112 21.7331 54.4841 24.5009 55.0717 27.5125M42.8925 3C49.1495 3.6951 54.9841 6.49704 59.4384 10.9458C63.8928 15.3945 66.7021 21.2256 67.405 27.4817M64.3217 52.0867V61.3367C64.3252 62.1954 64.1493 63.0454 63.8053 63.8322C63.4612 64.619 62.9567 65.3252 62.3239 65.9058C61.6912 66.4863 60.9441 66.9282 60.1307 67.2033C59.3172 67.4785 58.4553 67.5806 57.6 67.5033C48.1121 66.4724 38.9983 63.2303 30.9909 58.0375C23.541 53.3036 17.2248 46.9874 12.4909 39.5375C7.27996 31.4937 4.03711 22.3356 3.02503 12.805C2.94798 11.9524 3.04931 11.093 3.32257 10.2817C3.59583 9.47034 4.03504 8.72479 4.61222 8.0925C5.18941 7.46021 5.89192 6.95502 6.67505 6.60911C7.45817 6.2632 8.30474 6.08414 9.16086 6.08333H18.4109C19.9072 6.06861 21.3579 6.59849 22.4925 7.57423C23.627 8.54996 24.3681 9.90496 24.5775 11.3867C24.9679 14.3469 25.692 17.2534 26.7359 20.0508C27.1507 21.1544 27.2405 22.3538 26.9946 23.5069C26.7487 24.6599 26.1774 25.7183 25.3484 26.5567L21.4325 30.4725C25.8218 38.1918 32.2133 44.5832 39.9325 48.9725L43.8484 45.0567C44.6867 44.2277 45.7451 43.6564 46.8981 43.4105C48.0512 43.1645 49.2506 43.2543 50.3542 43.6692C53.1516 44.713 56.0582 45.4371 59.0184 45.8275C60.5161 46.0388 61.884 46.7932 62.8618 47.9473C63.8397 49.1013 64.3592 50.5745 64.3217 52.0867Z" stroke="white" stroke-width="5" stroke-linecap="round" stroke-linejoin="round"/>
</svg>
