<svg xmlns="http://www.w3.org/2000/svg" xmlns:xlink="http://www.w3.org/1999/xlink" id="Layer_1" data-name="Layer 1" viewBox="0 0 40 40"><defs><style>      .cls-1 {        fill: url(#linear-gradient);      }      .cls-1, .cls-2, .cls-3, .cls-4, .cls-5, .cls-6, .cls-7, .cls-8 {        stroke-width: 0px;      }      .cls-2 {        fill: #185c37;      }      .cls-3 {        fill: #33c481;      }      .cls-4 {        opacity: .1;      }      .cls-4, .cls-7 {        fill: #000;        isolation: isolate;      }      .cls-5 {        fill: #107c41;      }      .cls-6 {        fill: #21a366;      }      .cls-7 {        opacity: .2;      }      .cls-8 {        fill: #fff;      }    </style><linearGradient id="linear-gradient" x1="5.61" y1="-2082.12" x2="17.3" y2="-2061.88" gradientTransform="translate(0 2092)" gradientUnits="userSpaceOnUse"><stop offset="0" stop-color="#18884f"></stop><stop offset=".5" stop-color="#117e43"></stop><stop offset="1" stop-color="#0b6631"></stop></linearGradient></defs><path class="cls-2" d="M24.48,19.19l-13.84-2.44v18.04c0,.82.67,1.49,1.49,1.49h23.88c.82,0,1.49-.67,1.49-1.49h0v-6.65l-13.02-8.95Z"></path><path class="cls-6" d="M24.48,3.72h-12.35c-.82,0-1.49.67-1.49,1.49h0v6.65l13.84,8.14,7.33,2.44,5.7-2.44v-8.14L24.48,3.72Z"></path><path class="cls-5" d="M10.64,11.86h13.84v8.14h-13.84v-8.14Z"></path><path class="cls-4" d="M20.54,10.23h-9.9v20.35h9.9c.82,0,1.49-.67,1.49-1.49V11.72c0-.82-.67-1.49-1.49-1.49Z"></path><path class="cls-7" d="M19.73,11.05h-9.09v20.35h9.09c.82,0,1.49-.67,1.49-1.49V12.54c0-.82-.67-1.49-1.49-1.49Z"></path><path class="cls-7" d="M19.73,11.05h-9.09v18.72h9.09c.82,0,1.49-.67,1.49-1.49v-15.74c0-.82-.67-1.49-1.49-1.49Z"></path><path class="cls-7" d="M18.92,11.05h-8.28v18.72h8.28c.82,0,1.49-.67,1.49-1.49v-15.74c0-.82-.67-1.49-1.49-1.49Z"></path><path class="cls-1" d="M3.99,11.05h14.92c.82,0,1.49.67,1.49,1.49v14.92c0,.82-.67,1.49-1.49,1.49H3.99c-.82,0-1.49-.67-1.49-1.49v-14.92c0-.82.67-1.49,1.49-1.49Z"></path><path class="cls-8" d="M7.12,24.85l3.14-4.86-2.88-4.84h2.31l1.57,3.09c.14.29.24.51.3.66h.02c.1-.23.21-.46.33-.68l1.68-3.06h2.12l-2.95,4.81,3.02,4.89h-2.26l-1.81-3.39c-.09-.14-.16-.3-.22-.45h-.03c-.05.15-.12.3-.21.44l-1.87,3.41h-2.27Z"></path><path class="cls-3" d="M36.01,3.72h-11.53v8.14h13.02v-6.65c0-.82-.67-1.49-1.49-1.49h0Z"></path><path class="cls-5" d="M24.48,20h13.02v8.14h-13.02v-8.14Z"></path></svg>