<svg width="50" height="31" viewBox="0 0 50 31" fill="none" xmlns="http://www.w3.org/2000/svg">
<path d="M0 0H50V30.6452H0V0Z" fill="#5C9E31"/>
<path d="M0 0H50V10.4839H0V0Z" fill="#E27022"/>
<path d="M0 10.4839H50V20.1613H0V10.4839Z" fill="white"/>
<path d="M25.2386 14.4323L26.6128 12.529L25.6515 14.671L27.7934 13.7097L25.8902 15.0839L28.2257 15.3226L25.8902 15.5613L27.7934 16.9355L25.6515 15.9742L26.6128 18.1161L25.2386 16.2129L24.9999 18.5484L24.7611 16.2129L23.387 18.1161L24.3482 15.9742L22.2063 16.9355L24.1095 15.5613L21.774 15.3226L24.1095 15.0839L22.2063 13.7097L24.3482 14.671L23.387 12.529L24.7611 14.4323L24.9999 12.0968L25.2386 14.4323Z" stroke="#1E50A0" stroke-width="0.5" stroke-linecap="round" stroke-linejoin="round"/>
<path d="M25 19.3549C27.2269 19.3549 29.0322 17.5496 29.0322 15.3226C29.0322 13.0956 27.2269 11.2903 25 11.2903C22.773 11.2903 20.9677 13.0956 20.9677 15.3226C20.9677 17.5496 22.773 19.3549 25 19.3549Z" stroke="#1E50A0" stroke-width="0.5" stroke-linecap="round" stroke-linejoin="round"/>
</svg>
