<svg xmlns="http://www.w3.org/2000/svg" xmlns:xlink="http://www.w3.org/1999/xlink" id="Layer_1" data-name="Layer 1" viewBox="0 0 40 40"><defs><style>      .cls-1 {        fill: #7719aa;      }      .cls-1, .cls-2, .cls-3, .cls-4, .cls-5, .cls-6, .cls-7, .cls-8 {        stroke-width: 0px;      }      .cls-2 {        fill: url(#linear-gradient);      }      .cls-3 {        fill: #9332bf;      }      .cls-4 {        opacity: .2;      }      .cls-4, .cls-6 {        fill: #000;        isolation: isolate;      }      .cls-5 {        fill: #fff;      }      .cls-6 {        opacity: .5;      }      .cls-7 {        fill: #ae4bd5;      }      .cls-8 {        fill: #ca64ea;      }    </style><linearGradient id="linear-gradient" x1="5.61" y1="-2505.45" x2="17.3" y2="-2485.21" gradientTransform="translate(0 2515.33)" gradientUnits="userSpaceOnUse"><stop offset="0" stop-color="#8324b3"></stop><stop offset=".5" stop-color="#7a1bac"></stop><stop offset="1" stop-color="#621197"></stop></linearGradient></defs><path class="cls-8" d="M29.36,36.28H12.13c-.82,0-1.49-.67-1.49-1.49h0V5.21c0-.82.67-1.49,1.49-1.49h23.88c.82,0,1.49.67,1.49,1.49h0v6.65l-8.14,24.42Z"></path><path class="cls-7" d="M37.5,20l-4.07,2.44-4.07-2.44v-8.14h8.14v8.14h0Z"></path><path class="cls-3" d="M37.5,28.14l-4.07,2.44-4.07-2.44v-8.14h8.14v8.14Z"></path><path class="cls-1" d="M29.36,28.14h8.14v6.61c0,.84-.68,1.53-1.53,1.53h-6.61v-8.14Z"></path><path class="cls-4" d="M20.54,10.23h-9.9v20.35h9.9c.82,0,1.49-.67,1.49-1.49V11.72c0-.82-.67-1.49-1.49-1.49Z"></path><path class="cls-4" d="M19.73,11.05h-9.09v20.35h9.09c.82,0,1.49-.67,1.49-1.49V12.54c0-.82-.67-1.49-1.49-1.49Z"></path><path class="cls-6" d="M19.73,11.05h-9.09v18.72h9.09c.82,0,1.49-.67,1.49-1.49v-15.74c0-.82-.67-1.49-1.49-1.49Z"></path><path class="cls-6" d="M18.92,11.05h-8.28v18.72h8.28c.82,0,1.49-.67,1.49-1.49v-15.74c0-.82-.67-1.49-1.49-1.49Z"></path><path class="cls-2" d="M3.99,11.05h14.92c.82,0,1.49.67,1.49,1.49v14.92c0,.82-.67,1.49-1.49,1.49H3.99c-.82,0-1.49-.67-1.49-1.49v-14.92c0-.82.67-1.49,1.49-1.49Z"></path><path class="cls-5" d="M7.4,15.15h2.02l3.97,6.43c.18.29.32.52.41.7h.03c-.05-.44-.07-.88-.06-1.32v-5.81h1.73v9.7h-1.89l-4.12-6.61c-.14-.22-.26-.45-.37-.68h-.03c.04.48.06.96.05,1.45v5.84h-1.73v-9.7Z"></path></svg>