<svg xmlns="http://www.w3.org/2000/svg" xmlns:xlink="http://www.w3.org/1999/xlink" id="Layer_1" data-name="Layer 1" viewBox="0 0 40 40"><defs><style>      .cls-1 {        fill: #1490df;      }      .cls-1, .cls-2, .cls-3, .cls-4, .cls-5, .cls-6, .cls-7, .cls-8, .cls-9, .cls-10, .cls-11, .cls-12, .cls-13, .cls-14 {        stroke-width: 0px;      }      .cls-2 {        fill: url(#linear-gradient);      }      .cls-3, .cls-6 {        fill: #0a2767;      }      .cls-4 {        fill: #0364b8;      }      .cls-5 {        fill: #50d9ff;      }      .cls-6 {        opacity: .5;      }      .cls-6, .cls-8, .cls-12, .cls-13 {        isolation: isolate;      }      .cls-7 {        fill: #0078d4;      }      .cls-8 {        opacity: .1;      }      .cls-8, .cls-12, .cls-13 {        fill: #000;      }      .cls-9 {        fill: url(#linear-gradient-2);      }      .cls-10 {        fill: #14447d;      }      .cls-11 {        fill: #28a8ea;      }      .cls-12 {        opacity: .2;      }      .cls-13 {        opacity: .05;      }      .cls-14 {        fill: #fff;      }    </style><linearGradient id="linear-gradient" x1="24.07" y1="-1644.52" x2="24.07" y2="-1629.05" gradientTransform="translate(0 1665.33)" gradientUnits="userSpaceOnUse"><stop offset="0" stop-color="#35b8f1"></stop><stop offset="1" stop-color="#28a8ea"></stop></linearGradient><linearGradient id="linear-gradient-2" x1="5.61" y1="-1655.45" x2="17.3" y2="-1635.21" gradientTransform="translate(0 1665.33)" gradientUnits="userSpaceOnUse"><stop offset="0" stop-color="#1784d9"></stop><stop offset=".5" stop-color="#107ad5"></stop><stop offset="1" stop-color="#0a63c9"></stop></linearGradient></defs><path class="cls-3" d="M37.5,20.81c0-.27-.14-.53-.37-.67h-.02s-12.13-7.19-12.13-7.19c-.05-.04-.11-.07-.16-.1-.47-.24-1.02-.24-1.49,0-.06.03-.11.06-.16.1l-12.13,7.18h-.01c-.37.24-.48.73-.25,1.1.07.11.16.2.27.27l12.13,7.18c.05.04.11.07.16.1.47.24,1.02.24,1.49,0,.06-.03.11-.06.16-.1l12.13-7.18c.24-.14.39-.4.39-.68Z"></path><path class="cls-4" d="M12.45,16.02h7.96v7.3h-7.96v-7.3ZM35.87,8.6v-3.34c.02-.83-.64-1.53-1.48-1.55H13.74c-.83.02-1.49.71-1.48,1.55v3.34l12.21,3.26,11.4-3.26Z"></path><path class="cls-7" d="M12.27,8.6h8.14v7.33h-8.14v-7.33Z"></path><path class="cls-11" d="M28.55,8.6h-8.14v7.33l8.14,7.33h7.33v-7.33l-7.33-7.33Z"></path><path class="cls-7" d="M20.41,15.93h8.14v7.33h-8.14v-7.33Z"></path><path class="cls-4" d="M20.41,23.26h8.14v7.33h-8.14v-7.33Z"></path><path class="cls-10" d="M12.45,23.32h7.96v6.63h-7.96v-6.63Z"></path><path class="cls-7" d="M28.55,23.26h7.33v7.33h-7.33v-7.33Z"></path><path class="cls-2" d="M37.13,21.45h-.02s-12.13,6.83-12.13,6.83c-.05.03-.11.06-.16.09-.21.1-.43.15-.66.16l-.66-.39c-.06-.03-.11-.06-.16-.09l-12.29-7.01h0l-.4-.22v13.81c0,.92.76,1.66,1.68,1.66h23.53s.03,0,.04,0c.19-.01.39-.05.57-.12.08-.03.16-.07.23-.12.05-.03.15-.1.15-.1.42-.31.66-.8.67-1.31v-13.81c0,.26-.14.51-.37.64Z"></path><path class="cls-6" d="M36.85,20.76v.85l-12.68,8.73-13.13-9.29s0,0,0,0h0l-1.2-.72v-.61h.5s1.05.59,1.05.59h.02s.09.07.09.07c0,0,12.34,7.04,12.37,7.06l.47.28s.08-.03.13-.05c.02-.02,12.25-6.89,12.25-6.89h.14Z"></path><path class="cls-1" d="M37.13,21.45h-.02s-12.13,6.83-12.13,6.83c-.05.03-.11.06-.16.09-.47.23-1.02.23-1.49,0-.06-.03-.11-.06-.16-.09l-12.13-6.82h-.01c-.23-.14-.38-.38-.38-.65v13.81c0,.92.76,1.66,1.68,1.66h23.5c.92,0,1.67-.74,1.68-1.66h0v-13.81c0,.26-.14.51-.37.64Z"></path><path class="cls-8" d="M25.16,28.18l-.18.1c-.05.03-.11.06-.16.09-.2.1-.42.16-.64.17l4.61,5.46,8.05,1.94c.22-.17.4-.39.51-.64l-12.19-7.12Z"></path><path class="cls-13" d="M25.98,27.72l-1,.56c-.05.03-.11.06-.16.09-.2.1-.42.16-.64.17l2.16,5.96,10.5,1.43c.41-.31.66-.8.66-1.32v-.18l-11.52-6.73Z"></path><path class="cls-11" d="M12.34,36.28h23.48c.36,0,.71-.11,1.01-.33l-13.32-7.8c-.06-.03-.11-.06-.16-.09l-12.29-7.01h0l-.4-.23v13.76c0,.94.76,1.7,1.7,1.7t0,0Z"></path><path class="cls-8" d="M22.03,11.72v17.36c0,.61-.37,1.16-.94,1.38-.17.08-.36.11-.55.11h-9.91V11.05h1.63v-.81h8.28c.82,0,1.49.67,1.49,1.49Z"></path><path class="cls-12" d="M21.22,12.54v17.36c0,.2-.04.39-.12.57-.23.56-.77.92-1.37.93h-9.09V11.05h9.09c.24,0,.47.06.68.17.5.25.81.76.81,1.32Z"></path><path class="cls-12" d="M21.22,12.54v15.73c0,.82-.67,1.49-1.49,1.5h-9.09V11.05h9.09c.24,0,.47.06.68.17.5.25.81.76.81,1.32Z"></path><path class="cls-12" d="M20.41,12.54v15.73c0,.82-.67,1.49-1.49,1.5h-8.28V11.05h8.28c.82,0,1.49.67,1.49,1.49,0,0,0,0,0,0Z"></path><path class="cls-9" d="M3.99,11.05h14.92c.82,0,1.49.67,1.49,1.49v14.92c0,.82-.67,1.49-1.49,1.49H3.99c-.82,0-1.49-.67-1.49-1.49v-14.92c0-.82.67-1.49,1.49-1.49Z"></path><path class="cls-14" d="M7.16,17.3c.37-.78.96-1.44,1.7-1.88.82-.47,1.76-.71,2.71-.68.88-.02,1.75.2,2.51.64.72.43,1.29,1.05,1.66,1.8.4.82.6,1.73.58,2.65.02.96-.19,1.9-.6,2.77-.38.77-.97,1.42-1.71,1.86-.79.45-1.69.68-2.6.66-.9.02-1.78-.2-2.56-.65-.72-.43-1.3-1.05-1.68-1.8-.4-.81-.6-1.71-.59-2.61-.02-.95.18-1.89.58-2.75ZM8.98,21.72c.2.5.53.92.96,1.24.44.31.96.46,1.5.45.57.02,1.13-.14,1.6-.47.42-.31.75-.74.93-1.24.2-.55.3-1.14.3-1.73,0-.59-.09-1.19-.28-1.75-.17-.51-.48-.96-.9-1.29-.46-.34-1.02-.51-1.58-.49-.55-.01-1.08.15-1.53.45-.44.32-.78.75-.98,1.25-.44,1.15-.45,2.42,0,3.57h0Z"></path><path class="cls-5" d="M28.55,8.6h7.33v7.33h-7.33v-7.33Z"></path></svg>