<svg xmlns="http://www.w3.org/2000/svg" xmlns:xlink="http://www.w3.org/1999/xlink" id="Layer_1" data-name="Layer 1" viewBox="0 0 40 40"><defs><style>      .cls-1 {        fill: #ff8f6b;      }      .cls-1, .cls-2, .cls-3, .cls-4, .cls-5, .cls-6, .cls-7 {        stroke-width: 0px;      }      .cls-2 {        fill: url(#linear-gradient);      }      .cls-3 {        fill: #ed6c47;      }      .cls-4 {        fill: #d35230;      }      .cls-5 {        opacity: .1;      }      .cls-5, .cls-6 {        fill: #000;        isolation: isolate;      }      .cls-6 {        opacity: .2;      }      .cls-7 {        fill: #fff;      }    </style><linearGradient id="linear-gradient" x1="5.61" y1="-1738.12" x2="17.3" y2="-1717.88" gradientTransform="translate(0 1748)" gradientUnits="userSpaceOnUse"><stop offset="0" stop-color="#ca4c28"></stop><stop offset=".5" stop-color="#c5401e"></stop><stop offset="1" stop-color="#b62f14"></stop></linearGradient></defs><path class="cls-3" d="M23.66,21.63l-2.44-17.91h-.18c-8.88.03-16.07,7.22-16.1,16.1v.18l18.72,1.63Z"></path><path class="cls-1" d="M21.4,3.72h-.18v16.28l8.14,3.26,8.14-3.26v-.18c-.03-8.88-7.22-16.07-16.1-16.1Z"></path><path class="cls-4" d="M37.5,20v.18c-.03,8.88-7.22,16.07-16.1,16.1h-.36c-8.88-.03-16.07-7.22-16.1-16.1v-.18h32.56Z"></path><path class="cls-5" d="M22.03,11.72v17.37c0,.6-.37,1.15-.93,1.38-.18.08-.37.11-.56.11h-11.76c-.23-.26-.45-.54-.65-.81-2.07-2.77-3.19-6.13-3.19-9.59v-.36c0-3.12.91-6.17,2.62-8.77.18-.28.37-.55.57-.81h12.41c.82,0,1.48.67,1.49,1.49Z"></path><path class="cls-6" d="M21.22,12.54v17.37c0,.19-.04.38-.11.56-.23.56-.77.92-1.38.93h-10.21c-.26-.26-.5-.53-.74-.81-.23-.26-.45-.54-.65-.81-2.07-2.77-3.19-6.13-3.19-9.59v-.36c0-3.12.91-6.17,2.62-8.77h12.17c.82,0,1.48.67,1.49,1.49Z"></path><path class="cls-6" d="M21.22,12.54v15.74c0,.82-.67,1.48-1.49,1.49h-11.6c-2.07-2.77-3.19-6.13-3.19-9.59v-.36c0-3.12.91-6.17,2.62-8.77h12.17c.82,0,1.48.67,1.49,1.49Z"></path><path class="cls-6" d="M20.41,12.54v15.74c0,.82-.67,1.48-1.49,1.49h-10.78c-2.07-2.77-3.19-6.13-3.19-9.59v-.36c0-3.12.91-6.17,2.62-8.77h11.35c.82,0,1.48.67,1.49,1.49Z"></path><path class="cls-2" d="M3.99,11.05h14.92c.82,0,1.49.67,1.49,1.49v14.92c0,.82-.67,1.49-1.49,1.49H3.99c-.82,0-1.49-.67-1.49-1.49v-14.92c0-.82.67-1.49,1.49-1.49Z"></path><path class="cls-7" d="M11.62,15.03c.97-.07,1.93.22,2.72.8.65.58,1,1.43.95,2.31.01.61-.15,1.2-.47,1.72-.32.51-.78.92-1.32,1.17-.62.29-1.3.43-1.99.42h-1.89v3.51h-1.93v-9.92h3.94ZM9.61,19.92h1.66c.53.04,1.05-.12,1.47-.44.35-.33.53-.8.5-1.28,0-1.09-.64-1.64-1.91-1.64h-1.73v3.36h0Z"></path></svg>