<svg xmlns="http://www.w3.org/2000/svg" xmlns:xlink="http://www.w3.org/1999/xlink" id="Layer_1" data-name="Layer 1" viewBox="0 0 40 40"><defs><style>      .cls-1 {        fill: #5059c9;      }      .cls-1, .cls-2, .cls-3, .cls-4, .cls-5, .cls-6 {        stroke-width: 0px;      }      .cls-2 {        fill: url(#linear-gradient);      }      .cls-3 {        fill: #7b83eb;      }      .cls-4 {        opacity: .1;      }      .cls-4, .cls-5 {        fill: #000;        isolation: isolate;      }      .cls-5 {        opacity: .2;      }      .cls-6 {        fill: #fff;      }    </style><linearGradient id="linear-gradient" x1="5.61" y1="1591.48" x2="17.3" y2="1571.24" gradientTransform="translate(0 1601.36) scale(1 -1)" gradientUnits="userSpaceOnUse"><stop offset="0" stop-color="#5a62c3"></stop><stop offset=".5" stop-color="#4d55bd"></stop><stop offset="1" stop-color="#3940ab"></stop></linearGradient></defs><path class="cls-1" d="M26.91,15.93h9.04c.85,0,1.55.69,1.55,1.55h0v8.23c0,3.14-2.54,5.68-5.68,5.68h-.03c-3.14,0-5.68-2.54-5.68-5.68h0v-8.97c0-.45.36-.81.81-.81h0Z"></path><circle class="cls-1" cx="33.02" cy="10.64" r="3.66"></circle><circle class="cls-3" cx="21.63" cy="9.01" r="5.29"></circle><path class="cls-3" d="M28.68,15.93h-14.92c-.84.02-1.51.72-1.49,1.57v9.39c-.12,5.06,3.89,9.27,8.95,9.39,5.06-.12,9.07-4.33,8.95-9.39v-9.39c.02-.84-.65-1.54-1.49-1.57Z"></path><path class="cls-4" d="M22.03,15.93v13.16c0,.6-.37,1.15-.93,1.38-.18.08-.37.11-.56.11h-7.56c-.11-.27-.2-.54-.28-.81-.28-.93-.43-1.9-.43-2.88v-9.39c-.02-.84.65-1.54,1.49-1.56h8.28Z"></path><path class="cls-5" d="M21.22,15.93v13.98c0,.19-.04.38-.11.56-.23.56-.77.92-1.38.93h-6.37c-.14-.27-.27-.54-.38-.81s-.2-.54-.28-.81c-.28-.93-.43-1.9-.43-2.88v-9.39c-.02-.84.65-1.54,1.49-1.56h7.46Z"></path><path class="cls-5" d="M21.22,15.93v12.35c0,.82-.67,1.48-1.49,1.49h-7.03c-.28-.93-.43-1.9-.43-2.88v-9.39c-.02-.84.65-1.54,1.49-1.56h7.46Z"></path><path class="cls-5" d="M20.41,15.93v12.35c0,.82-.67,1.48-1.49,1.49h-6.22c-.28-.93-.43-1.9-.43-2.88v-9.39c-.02-.84.65-1.54,1.49-1.56h6.65Z"></path><path class="cls-4" d="M22.03,11.72v2.56c-.14,0-.27.02-.41.02s-.27,0-.41-.02c-.27-.02-.55-.06-.81-.13-1.65-.39-3.01-1.55-3.66-3.11-.11-.26-.2-.54-.26-.81h4.06c.82,0,1.49.67,1.49,1.49Z"></path><path class="cls-5" d="M21.22,12.54v1.75c-.27-.02-.55-.06-.81-.13-1.65-.39-3.01-1.55-3.66-3.11h2.99c.82,0,1.49.67,1.49,1.49Z"></path><path class="cls-5" d="M21.22,12.54v1.75c-.27-.02-.55-.06-.81-.13-1.65-.39-3.01-1.55-3.66-3.11h2.99c.82,0,1.49.67,1.49,1.49Z"></path><path class="cls-5" d="M20.41,12.54v1.62c-1.65-.39-3.01-1.55-3.66-3.11h2.17c.82,0,1.49.67,1.49,1.49Z"></path><path class="cls-2" d="M3.99,11.05h14.92c.82,0,1.49.67,1.49,1.49v14.92c0,.82-.67,1.49-1.49,1.49H3.99c-.82,0-1.49-.67-1.49-1.49v-14.92c0-.82.67-1.49,1.49-1.49Z"></path><path class="cls-6" d="M15.38,16.73h-2.98v8.12h-1.9v-8.12h-2.97v-1.58h7.85v1.58h0Z"></path></svg>