<svg xmlns="http://www.w3.org/2000/svg" xmlns:xlink="http://www.w3.org/1999/xlink" id="Layer_1" data-name="Layer 1" viewBox="0 0 40 40"><defs><style>      .cls-1 {        fill: url(#linear-gradient);      }      .cls-1, .cls-2, .cls-3, .cls-4, .cls-5, .cls-6, .cls-7, .cls-8 {        stroke-width: 0px;      }      .cls-2 {        fill: #41a5ee;      }      .cls-3 {        fill: #103f91;      }      .cls-4 {        fill: #185abd;      }      .cls-5 {        fill: #2b7cd3;      }      .cls-6 {        opacity: .1;      }      .cls-6, .cls-7 {        fill: #000;        isolation: isolate;      }      .cls-7 {        opacity: .2;      }      .cls-8 {        fill: #fff;      }    </style><linearGradient id="linear-gradient" x1="5.61" y1="-1702.12" x2="17.3" y2="-1681.88" gradientTransform="translate(0 1712)" gradientUnits="userSpaceOnUse"><stop offset="0" stop-color="#2368c4"></stop><stop offset=".5" stop-color="#1a5dbe"></stop><stop offset="1" stop-color="#1146ac"></stop></linearGradient></defs><path class="cls-2" d="M36.01,3.72H12.13c-.82,0-1.49.67-1.49,1.49h0v6.65l13.84,4.07,13.02-4.07v-6.65c0-.82-.67-1.49-1.49-1.49h0Z"></path><path class="cls-5" d="M37.5,11.86H10.64v8.14l13.84,2.44,13.02-2.44v-8.14Z"></path><path class="cls-4" d="M10.64,20v8.14l13.02,1.63,13.84-1.63v-8.14H10.64Z"></path><path class="cls-3" d="M12.13,36.28h23.88c.82,0,1.49-.67,1.49-1.49h0v-6.65H10.64v6.65c0,.82.67,1.49,1.49,1.49h0Z"></path><path class="cls-6" d="M20.54,10.23h-9.9v20.35h9.9c.82,0,1.49-.67,1.49-1.49V11.72c0-.82-.67-1.49-1.49-1.49Z"></path><path class="cls-7" d="M19.73,11.05h-9.09v20.35h9.09c.82,0,1.49-.67,1.49-1.49V12.54c0-.82-.67-1.49-1.49-1.49Z"></path><path class="cls-7" d="M19.73,11.05h-9.09v18.72h9.09c.82,0,1.49-.67,1.49-1.49v-15.74c0-.82-.67-1.49-1.49-1.49Z"></path><path class="cls-7" d="M18.91,11.05h-8.28v18.72h8.28c.82,0,1.49-.67,1.49-1.49v-15.74c0-.82-.67-1.49-1.49-1.49Z"></path><path class="cls-1" d="M3.99,11.05h14.92c.82,0,1.49.67,1.49,1.49v14.92c0,.82-.67,1.49-1.49,1.49H3.99c-.82,0-1.49-.67-1.49-1.49v-14.92c0-.82.67-1.49,1.49-1.49Z"></path><path class="cls-8" d="M8.62,22.49c.03.23.05.43.06.6h.03c.01-.16.04-.36.08-.59.04-.23.08-.42.11-.58l1.57-6.77h2.03l1.63,6.67c.09.41.16.83.2,1.26h.03c.03-.41.09-.82.17-1.22l1.3-6.71h1.85l-2.28,9.7h-2.16l-1.55-6.43c-.04-.18-.1-.43-.15-.72s-.09-.51-.11-.65h-.03c-.02.16-.05.39-.11.7-.05.31-.09.54-.13.69l-1.45,6.41h-2.19l-2.29-9.7h1.88l1.41,6.78c.03.14.06.32.09.55Z"></path></svg>