<svg xmlns="http://www.w3.org/2000/svg" id="Layer_1" data-name="Layer 1" viewBox="0 0 40 40"><defs><style>      .cls-1 {        fill: #0358a7;      }      .cls-1, .cls-2, .cls-3, .cls-4, .cls-5, .cls-6, .cls-7 {        stroke-width: 0px;      }      .cls-2 {        fill: none;      }      .cls-3 {        fill: #0078d4;      }      .cls-4 {        opacity: .1;      }      .cls-4, .cls-6 {        fill: #000;        isolation: isolate;      }      .cls-5 {        fill: #28a8ea;      }      .cls-6 {        opacity: .2;      }      .cls-7 {        fill: #fff;      }    </style></defs><g id="STYLE_COLOR" data-name="STYLE COLOR"><path class="cls-5" d="M15.13,13.13c-.14-.15-.16-.37-.06-.54.02-.03.04-.06.07-.09L24.47,3.16c.36-.36.93-.36,1.29,0,0,0,.02.02.03.03,2.74,2.96,4.71,6.54,5.75,10.44h0s-5.65,6.38-5.65,6.38l-8.4-2.63c-.43-1.58-1.24-3.04-2.35-4.24Z"></path><path class="cls-3" d="M36,13.4c-.12-.49-.61-.79-1.1-.68,0,0-.02,0-.03,0l-17.39,4.65c.46,1.73.46,3.56,0,5.29l5.8,7.23,8.26-3.45,3.33.89c.49.13.98-.16,1.12-.64,0,0,0-.02,0-.03,1.01-4.36,1.01-8.9,0-13.27Z"></path><path class="cls-1" d="M17.49,22.66c-.42,1.58-1.22,3.03-2.33,4.24-.17.18-.17.46,0,.64l9.32,9.31c.36.36.93.36,1.29,0,0,0,.02-.02.02-.02,2.73-2.94,4.7-6.51,5.74-10.38l-14.06-3.78Z"></path><path class="cls-4" d="M22.19,29.48V11.61c0-.8-.65-1.46-1.46-1.46h-3.27l-2.31,2.32s-.05.06-.07.09c-.1.17-.08.39.06.54,1.12,1.2,1.92,2.66,2.35,4.24h0s0,0,0,0c.46,1.73.46,3.56,0,5.29-.12.45-.27.89-.45,1.32-.45,1.07-1.09,2.06-1.88,2.92-.17.18-.17.46,0,.64l3.43,3.42h2.13c.8,0,1.46-.65,1.46-1.46Z"></path><path class="cls-6" d="M21.09,30.57V12.71c0-.8-.65-1.46-1.46-1.46h-3.27l-1.22,1.22s-.05.06-.07.09c-.1.17-.08.39.06.54,1.12,1.2,1.92,2.66,2.35,4.24h0s0,0,0,0c.46,1.73.46,3.56,0,5.29-.12.45-.27.89-.45,1.32-.45,1.07-1.09,2.06-1.88,2.92-.17.18-.17.46,0,.64l4.52,4.52c.78-.03,1.4-.67,1.4-1.46Z"></path><path class="cls-6" d="M21.09,28.39v-15.68c0-.8-.65-1.46-1.46-1.46h-3.27l-1.22,1.22s-.05.06-.07.09c-.1.17-.08.39.06.54,1.12,1.2,1.92,2.66,2.35,4.24h0s0,0,0,0c.46,1.73.46,3.56,0,5.29-.12.45-.27.89-.45,1.32-.45,1.07-1.09,2.06-1.88,2.92-.17.18-.17.46,0,.64l2.33,2.33h2.14c.8,0,1.46-.65,1.46-1.46Z"></path><path class="cls-6" d="M20,28.39v-15.68c0-.8-.65-1.46-1.46-1.46h-2.18l-1.22,1.22s-.05.06-.07.09c-.1.17-.08.39.06.54,1.12,1.2,1.92,2.66,2.35,4.24h0s0,0,0,0c.46,1.73.46,3.56,0,5.29-.12.45-.27.89-.45,1.32-.45,1.07-1.09,2.06-1.88,2.92-.17.18-.17.46,0,.64l2.33,2.33h1.04c.8,0,1.46-.65,1.46-1.46Z"></path><path id="Back_Plate" data-name="Back Plate" class="cls-3" d="M3.96,11.25h14.58c.81,0,1.46.65,1.46,1.46v14.58c0,.81-.65,1.46-1.46,1.46H3.96c-.81,0-1.46-.65-1.46-1.46v-14.58c0-.81.65-1.46,1.46-1.46h0Z"></path><path class="cls-7" d="M11.06,19.2c.1.21.18.43.24.66h.02c.06-.22.13-.44.24-.64l2.21-4.17c.17-.32.5-.52.86-.52h0c.54,0,.97.44.97.97,0,.17-.04.34-.13.48l-3.06,5.33c-.08.15-.13.31-.13.48v2.7c0,.54-.44.97-.97.97h-.2c-.54,0-.97-.44-.97-.97h0v-2.66c0-.17-.04-.33-.12-.47l-3-5.38c-.26-.47-.09-1.06.37-1.32.14-.08.31-.12.47-.12h.19c.36,0,.7.2.86.53l2.14,4.14Z"></path><rect class="cls-2" x="2.5" y="2.5" width="35" height="35"></rect></g></svg>